{
	"asset":{
		"version":"2.0",
		"generator":"Houdini GLTF 2.0 Exporter"
	},
	"accessors":[
		{
			"bufferView":0,
			"componentType":5123,
			"count":4344,
			"type":"SCALAR",
			"min":[0
			],
			"max":[1020
			]
		},
		{
			"bufferView":1,
			"componentType":5126,
			"count":1021,
			"type":"VEC3",
			"min":[-0.221697956,-5.99999979e-08,-0.268174469
			],
			"max":[0.221703321,0.561910629,0.306755722
			]
		},
		{
			"bufferView":2,
			"componentType":5126,
			"count":1021,
			"type":"VEC2",
			"min":[0,0.128743589
			],
			"max":[0.999949694,0.677734375
			]
		},
		{
			"bufferView":3,
			"componentType":5126,
			"count":1021,
			"type":"VEC4",
			"min":[-0.998337805,-0.999964416,-0.999462128,1
			],
			"max":[0.998178959,0.348879874,0.997977912,1
			]
		},
		{
			"bufferView":4,
			"componentType":5126,
			"count":1021,
			"type":"VEC3",
			"min":[-0.997850716,-1,-0.998566329
			],
			"max":[0.997850716,0.998787999,0.966343343
			]
		},
		{
			"bufferView":5,
			"componentType":5123,
			"count":11730,
			"type":"SCALAR",
			"min":[0
			],
			"max":[2110
			]
		},
		{
			"bufferView":6,
			"componentType":5126,
			"count":2111,
			"type":"VEC3",
			"min":[-0.258821607,0.360350162,-0.237172157
			],
			"max":[0.258828819,0.805993438,0.381764263
			]
		},
		{
			"bufferView":7,
			"componentType":5126,
			"count":2111,
			"type":"VEC2",
			"min":[0,0.00429755449
			],
			"max":[0.999887466,1
			]
		},
		{
			"bufferView":8,
			"componentType":5126,
			"count":2111,
			"type":"VEC4",
			"min":[-0.999904275,-0.999945462,-0.992002428,1
			],
			"max":[1,0.74826926,0.983079493,1
			]
		},
		{
			"bufferView":9,
			"componentType":5126,
			"count":2111,
			"type":"VEC3",
			"min":[-0.999950826,-0.999621212,-0.997307837
			],
			"max":[0.999896526,0.999992371,0.999871194
			]
		}
	],
	"buffers":[
		{
			"uri":"chair_bake_data.bin",
			"byteLength":182484,
			"name":"main_buffer"
		}
	],
	"bufferViews":[
		{
			"buffer":0,
			"byteLength":8688,
			"target":34963
		},
		{
			"buffer":0,
			"byteOffset":8688,
			"byteLength":12252,
			"target":34962
		},
		{
			"buffer":0,
			"byteOffset":20940,
			"byteLength":8168,
			"target":34962
		},
		{
			"buffer":0,
			"byteOffset":29108,
			"byteLength":16336,
			"target":34962
		},
		{
			"buffer":0,
			"byteOffset":45444,
			"byteLength":12252,
			"target":34962
		},
		{
			"buffer":0,
			"byteOffset":57696,
			"byteLength":23460,
			"target":34963
		},
		{
			"buffer":0,
			"byteOffset":81156,
			"byteLength":25332,
			"target":34962
		},
		{
			"buffer":0,
			"byteOffset":106488,
			"byteLength":16888,
			"target":34962
		},
		{
			"buffer":0,
			"byteOffset":123376,
			"byteLength":33776,
			"target":34962
		},
		{
			"buffer":0,
			"byteOffset":157152,
			"byteLength":25332,
			"target":34962
		}
	],
	"nodes":[
		{
			"name":"chair",
			"mesh":0
		}
	],
	"meshes":[
		{
			"primitives":[
				{
					"attributes":{
						"POSITION":1,
						"TANGENT":3,
						"NORMAL":4,
						"TEXCOORD_0":2
					},
					"indices":0,
					"material":0
				},
				{
					"attributes":{
						"POSITION":6,
						"TANGENT":8,
						"NORMAL":9,
						"TEXCOORD_0":7
					},
					"indices":5,
					"material":1
				}
			],
			"name":"material1"
		}
	],
	"materials":[
		{
			"name":"clay",
			"pbrMetallicRoughness":{
				"baseColorFactor":[0.200000003,0.200000003,0.200000003,1
				],
				"metallicFactor":0,
				"roughnessFactor":0.300000012
			}
		},
		{
			"name":"fabric",
			"pbrMetallicRoughness":{
				"baseColorFactor":[0.200000003,0.200000003,0.200000003,1
				],
				"metallicFactor":0,
				"roughnessFactor":0.300000012
			}
		}
	],
	"scenes":[
		{
			"nodes":[0
			]
		}
	],
	"scene":0
}
